<svg xmlns="http://www.w3.org/2000/svg" viewBox="0 0 125.3 125.3"><defs><style>.cls-1{fill:#dd88b8;}.cls-2{fill:#fff;}</style></defs><g id="Capa_2" data-name="Capa 2"><g id="Capa_1-2" data-name="Capa 1"><circle class="cls-1" cx="62.65" cy="62.65" r="62.65"/><path class="cls-2" d="M23.58,40a.91.91,0,0,1-.54.42.87.87,0,0,1-.7-.1.83.83,0,0,1-.42-.55.93.93,0,0,1,.62-1.09.88.88,0,0,1,.68.12.93.93,0,0,1,.45.53A.88.88,0,0,1,23.58,40Z"/><path class="cls-2" d="M31.87,33.41l-5.78-5.63L23.89,30l-.82-.8,5.31-5.45.82.8L27,26.85l5.77,5.63Z"/><path class="cls-2" d="M36.3,29.17l-5.13-7.65,3-2a5,5,0,0,1,1.93-.83,2.89,2.89,0,0,1,1.71.18,3.19,3.19,0,0,1,1.34,1.18,3.08,3.08,0,0,1,.57,1.68,2.82,2.82,0,0,1-.48,1.65,5,5,0,0,1-1.5,1.46l-2.38,1.6.15-.83,1.9,2.83Zm-.73-3.45-.86-.21,2.35-1.57a3,3,0,0,0,1.29-1.52A1.91,1.91,0,0,0,38,20.78a1.87,1.87,0,0,0-1.39-.9,3,3,0,0,0-1.89.61l-2.35,1.58.12-.88Zm5.84,0-3.8-1.47,1.17-.78L42.6,25Z"/><path class="cls-2" d="M44.79,24.07,41,15.67l1.2-.54L46,23.54Z"/><path class="cls-2" d="M51.52,21.61l-6.21-7.92,1.37-.35,5.72,7.31-.79.2,1.52-9.16,1.28-.33-1.63,9.93Z"/><path class="cls-2" d="M58.53,20.32l-.74-9.18L59.1,11l.75,9.18Z"/><path class="cls-2" d="M67.11,20.45a5.28,5.28,0,0,1-1.9-.51,4.56,4.56,0,0,1-1.45-1.11,4.6,4.6,0,0,1-1.09-3.49,4.62,4.62,0,0,1,.52-1.84A4.57,4.57,0,0,1,66,11.25a5.55,5.55,0,0,1,3.89.35,4,4,0,0,1,1.44,1.2l-.93.75a3.26,3.26,0,0,0-1.11-.92,3.55,3.55,0,0,0-1.38-.39,3.86,3.86,0,0,0-1.45.14,3.43,3.43,0,0,0-1.21.64,3.13,3.13,0,0,0-.85,1.05,3.9,3.9,0,0,0-.25,2.82,3.32,3.32,0,0,0,1.75,2,3.77,3.77,0,0,0,1.41.38,3.53,3.53,0,0,0,1.42-.14A3.46,3.46,0,0,0,70,18.41l.78.9a4.14,4.14,0,0,1-1.62,1A5.11,5.11,0,0,1,67.11,20.45Z"/><path class="cls-2" d="M71.48,20.76l6.86-7.43,1.24.41L80.65,23.8l-1.32-.44-.86-9.21.5.17-6.2,6.86Zm2.41-1.63.67-.89,4.92,1.64,0,1.12Z"/><path class="cls-2" d="M82,24.6l4.82-7.85,3.06,1.89A5,5,0,0,1,91.41,20,2.9,2.9,0,0,1,92,21.67a3.24,3.24,0,0,1-.52,1.71,3,3,0,0,1-1.29,1.22,2.9,2.9,0,0,1-1.69.25,4.93,4.93,0,0,1-2-.76l-2.45-1.5.83-.2-1.79,2.9Zm2.84-2.1-.17-.86,2.41,1.48a3,3,0,0,0,1.92.54,1.9,1.9,0,0,0,1.35-1,1.86,1.86,0,0,0,.25-1.64,2.93,2.93,0,0,0-1.35-1.46l-2.41-1.48.85-.25Zm2.41,5.32L87,23.75l1.2.74.27,4.09Z"/><path class="cls-2" d="M91.79,30.09l3.85,3.74-.79.82L90.05,30l6.42-6.6,4.66,4.52-.8.82-3.72-3.61Zm2.77-3,3.4,3.3-.78.8-3.4-3.3Z"/><path class="cls-2" d="M101.45,39.42a.83.83,0,0,1-.11-.67.86.86,0,0,1,.43-.56.83.83,0,0,1,.68-.11.88.88,0,0,1,.54.42.82.82,0,0,1,.11.66.85.85,0,0,1-.43.54.89.89,0,0,1-.68.13A.85.85,0,0,1,101.45,39.42Z"/><path class="cls-2" d="M13,47.93l9,1.9-.23,1.06-8.66,4.39.12-.55,7.4,1.56-.27,1.29-9-1.91.22-1.05,8.66-4.39-.11.55-7.4-1.57Z"/><path class="cls-2" d="M10.91,60.15l9.4,3.74.06,1.3-9,4.61-.06-1.38,8.29-4.11,0,.52L11,61.51Zm2.39,1.67,1.06.31.25,5.17-1,.43Z"/><path class="cls-2" d="M12.56,74.85l7.81-2-.79-3,1.1-.29,1.91,7.38-1.11.28-.79-3.05-7.81,2Z"/><path class="cls-2" d="M17,86.77a3.93,3.93,0,0,1-.42-3,4.14,4.14,0,0,1,2.2-2.35L23.39,79,24,80.12l-4.58,2.43a3.21,3.21,0,0,0-1.67,1.65,2.95,2.95,0,0,0,1.81,3.4,3.2,3.2,0,0,0,2.3-.46l4.58-2.43.6,1.12-4.63,2.46a4.11,4.11,0,0,1-3.16.52A3.92,3.92,0,0,1,17,86.77Z"/><path class="cls-2" d="M22.23,94.75,29,88.55l2.41,2.65A5,5,0,0,1,32.56,93a2.9,2.9,0,0,1,.07,1.72,3.17,3.17,0,0,1-1,1.5,3.08,3.08,0,0,1-1.58.81,2.9,2.9,0,0,1-1.7-.23,5.11,5.11,0,0,1-1.67-1.27L24.79,93.4l.84,0-2.52,2.29Zm3.3-1.23.08-.88,1.91,2.1a2.86,2.86,0,0,0,1.69,1,2.12,2.12,0,0,0,2.26-2.06A2.92,2.92,0,0,0,30.58,92l-1.9-2.1h.88Zm.84,5.78.9-4,.94,1-.87,4Z"/><path class="cls-2" d="M30.42,103.1,39,97.68l1.09.71-1.55,10-1.15-.76,1.52-9.13.44.29-7.75,5Zm2.75-.95.87-.69,4.34,2.84-.26,1.09Z"/><path class="cls-2" d="M42.54,110.13l3.17-8.65,1.24.45-2.78,7.57,4.68,1.72-.4,1.08Z"/><path class="cls-2" d="M63.09,114.26a5.27,5.27,0,0,1-1.93-.38,4.45,4.45,0,0,1-1.52-1,4.79,4.79,0,0,1-1-1.51,4.71,4.71,0,0,1-.34-1.89,4.57,4.57,0,0,1,1.45-3.35,4.63,4.63,0,0,1,1.56-1,5.56,5.56,0,0,1,3.91.07,4,4,0,0,1,1.51,1.1l-.86.81a3.62,3.62,0,0,0-1.17-.84,3.9,3.9,0,0,0-1.41-.29,3.76,3.76,0,0,0-1.44.24,3.32,3.32,0,0,0-1.94,1.83,3.62,3.62,0,0,0-.29,1.41,3.69,3.69,0,0,0,.24,1.42,3.32,3.32,0,0,0,1.88,1.89,4,4,0,0,0,1.44.29,3.68,3.68,0,0,0,1.41-.25,3.36,3.36,0,0,0,1.2-.81l.84.84a4.14,4.14,0,0,1-1.55,1A5.17,5.17,0,0,1,63.09,114.26Z"/><path class="cls-2" d="M75.41,112.67a5.16,5.16,0,0,1-2,.13,4.53,4.53,0,0,1-1.75-.58A4.43,4.43,0,0,1,70.32,111a4.89,4.89,0,0,1-.92-3.63,4.61,4.61,0,0,1,.63-1.69,4.75,4.75,0,0,1,1.26-1.35,5.62,5.62,0,0,1,3.78-1,4.64,4.64,0,0,1,1.75.58,4.43,4.43,0,0,1,1.36,1.19,4.9,4.9,0,0,1,.81,1.74,4.62,4.62,0,0,1,.11,1.91,4.32,4.32,0,0,1-.63,1.7,4.58,4.58,0,0,1-1.26,1.34A5.28,5.28,0,0,1,75.41,112.67Zm-.28-1.13a3.8,3.8,0,0,0,1.3-.61,3.33,3.33,0,0,0,.92-1,3.56,3.56,0,0,0,.45-1.28,3.67,3.67,0,0,0-.08-1.43,3.71,3.71,0,0,0-.61-1.3,3.61,3.61,0,0,0-1-.91,3.54,3.54,0,0,0-1.28-.44,3.92,3.92,0,0,0-1.44.09,3.81,3.81,0,0,0-1.32.61,3.44,3.44,0,0,0-1.38,2.27,3.5,3.5,0,0,0,.09,1.43,3.46,3.46,0,0,0,.6,1.3,3.39,3.39,0,0,0,2.3,1.35A4,4,0,0,0,75.13,111.54Z"/><path class="cls-2" d="M87.14,108.11a6,6,0,0,1-1.93.67,4.11,4.11,0,0,1-1.72,0l-.06-1.14a4.12,4.12,0,0,0,1.54,0,4.8,4.8,0,0,0,1.64-.54,3.78,3.78,0,0,0,1.06-.78,1.55,1.55,0,0,0,.41-.79,1.19,1.19,0,0,0-.14-.76,1,1,0,0,0-.63-.53,2.38,2.38,0,0,0-.93,0,10.63,10.63,0,0,0-1.1.25c-.39.11-.79.2-1.2.29a5.37,5.37,0,0,1-1.17.11,2.17,2.17,0,0,1-1.06-.27,2.22,2.22,0,0,1-.83-.92,2.3,2.3,0,0,1-.29-1.33,2.62,2.62,0,0,1,.56-1.39,4.78,4.78,0,0,1,1.58-1.27,6.71,6.71,0,0,1,1.51-.57A4.53,4.53,0,0,1,85.87,99l.11,1.13a4.46,4.46,0,0,0-1.37.09,4.72,4.72,0,0,0-1.21.45,3.38,3.38,0,0,0-1,.78,1.52,1.52,0,0,0-.39.81,1.24,1.24,0,0,0,.15.75,1,1,0,0,0,.64.54,2.33,2.33,0,0,0,.92,0,11.25,11.25,0,0,0,1.1-.25l1.2-.29a4.8,4.8,0,0,1,1.17-.12,2.34,2.34,0,0,1,1,.27,2.15,2.15,0,0,1,.83.9,2.41,2.41,0,0,1,.28,1.32,2.75,2.75,0,0,1-.58,1.41A5,5,0,0,1,87.14,108.11Z"/><path class="cls-2" d="M94.43,103.52l-6.3-6.71.79-.74,7.77,2.25-.42.39-1.79-7.86.79-.74,6.31,6.71-.92.86-5-5.26.22-.2,1.53,6.93-.44.42-6.85-1.95.24-.23,4.94,5.27Z"/><path class="cls-2" d="M104.77,90.45l2.82-4.57,1,.6-3.51,5.69-7.84-4.84,3.41-5.53,1,.6-2.73,4.42Zm-3.54-2,2.49-4,1,.59-2.49,4Z"/><path class="cls-2" d="M111.31,79.91l-7.63-2.62-1,3-1.09-.37,2.48-7.2,1.08.37-1,3,7.63,2.61Z"/><path class="cls-2" d="M113.51,71.63l-9.09-1.49.21-1.3,9.09,1.5Z"/><path class="cls-2" d="M114.38,60.75a5.1,5.1,0,0,1-.31,1.94,4.57,4.57,0,0,1-.95,1.56,4.68,4.68,0,0,1-3.35,1.46,4.88,4.88,0,0,1-1.89-.33,4.68,4.68,0,0,1-1.51-1,4.77,4.77,0,0,1-1-1.53,5.44,5.44,0,0,1-.39-1.93,5.26,5.26,0,0,1,.33-2,4,4,0,0,1,1-1.56l.84.84a3.43,3.43,0,0,0-.79,1.2,3.68,3.68,0,0,0-.25,1.41,3.78,3.78,0,0,0,.3,1.44,3.31,3.31,0,0,0,.76,1.14,3.38,3.38,0,0,0,1.14.73,3.82,3.82,0,0,0,2.82-.06,3.11,3.11,0,0,0,1.11-.78,3.44,3.44,0,0,0,.72-1.16,4,4,0,0,0,.23-1.45,3.66,3.66,0,0,0-.3-1.4,3.38,3.38,0,0,0-.85-1.17l.81-.87A4.18,4.18,0,0,1,114,58.77,5.3,5.3,0,0,1,114.38,60.75Z"/><path class="cls-2" d="M112.78,49.61a6.12,6.12,0,0,1,.19,2,4.13,4.13,0,0,1-.43,1.67l-1.12-.21a4.28,4.28,0,0,0,.41-1.49,5,5,0,0,0-.13-1.72,3.89,3.89,0,0,0-.51-1.22,1.51,1.51,0,0,0-.67-.58,1.19,1.19,0,0,0-.77-.05,1,1,0,0,0-.66.49,2.33,2.33,0,0,0-.25.89,10.31,10.31,0,0,0,0,1.13q0,.62,0,1.23a5.32,5.32,0,0,1-.17,1.17A2,2,0,0,1,107,54.5a2.42,2.42,0,0,1-1.36,0,2.62,2.62,0,0,1-1.22-.89,4.7,4.7,0,0,1-.85-1.84,6,6,0,0,1-.19-1.59,4.33,4.33,0,0,1,.24-1.48l1.13.16a4,4,0,0,0-.24,1.35,4.37,4.37,0,0,0,.15,1.28,3.3,3.3,0,0,0,.5,1.19,1.69,1.69,0,0,0,.7.58,1.34,1.34,0,0,0,.77,0,1,1,0,0,0,.67-.5,2.12,2.12,0,0,0,.25-.89,10.24,10.24,0,0,0,0-1.13q0-.6,0-1.23a4.93,4.93,0,0,1,.16-1.17,2.37,2.37,0,0,1,.51-1,2.17,2.17,0,0,1,1.07-.59,2.3,2.3,0,0,1,1.35,0,2.58,2.58,0,0,1,1.23.9A4.9,4.9,0,0,1,112.78,49.61Z"/><path class="cls-2" d="M82.83,37.84s.9,5.76,1,6.8c-2.6-3-7.81-5.8-17.15-5.8H65.17V71.33c0,9.34,1.13,14.86,2.9,16.13H57.22c1.78-1.27,2.9-6.79,2.9-16.13V38.84H58.59c-9.34,0-14.54,2.76-17.14,5.8.11-1,1-6.8,1-6.8Z"/></g></g></svg>