<svg xmlns="http://www.w3.org/2000/svg" viewBox="0 0 223.02 44.64"><g id="Capa_2" data-name="Capa 2"><g id="Capa_1-2" data-name="Capa 1"><path d="M35.2,1.22S36,6.12,36.06,7c-2.21-2.58-6.64-4.93-14.58-4.93h-1.3V29.7c0,7.94.95,12.63,2.46,13.72H13.42c1.5-1.09,2.46-5.78,2.46-13.72V2.07h-1.3C6.64,2.07,2.21,4.42,0,7c.1-.88.86-5.78.86-5.78Z"/><path d="M55.22,17.67c-7.4-6.75-17.17.73-17.17,8.8v3.82c.05,7.58,1,12.07,2.47,13.13H33.76v0H31.29c1.5-1.09,2.46-5.78,2.46-13.72V25.94c0-7.94-1-12.63-2.47-13.71h2.46v0h4.29v10C40.26,15.74,47.46,11,57.16,11Zm4.24,25.75H52.7v0H50.23c3.8-3.52,3-17.81,0-20.19h2.46v0H57v7.06C57,37.87,58,42.36,59.46,43.42Z"/><path d="M86,14.94,75.47,42.46l-.36,1h-.86L67.63,25.94c-2.78-7.32-5-11.74-7.67-13.71h9.23c-1.51,1.08.41,7.6,2.73,13.71L76.4,37.76h0l9.17-24C90.33,1.29,93.33,0,99.66,0L97.34,8C92.54,3.17,90,4.27,86,14.94Zm15.37,28.48H94.59v0H92.12c1.5-1.09,2.46-5.78,2.46-13.72V25.94c0-7.94-1-12.63-2.46-13.71h2.46v0h4.29V30.29C98.93,37.88,99.88,42.36,101.35,43.42Z"/><path d="M122.56,44.64c-10.35,0-18.74-10-18.74-22.32S112.21,0,122.56,0c5.85,0,6.16,1.22,11.2,1.22V9.71C131.3,4.42,127.3.85,122.56.85c-8,0-13.84,10.08-13.84,21.47s5.86,21.46,13.84,21.46c5.78,0,10.67-3.11,13.87-7.82l.69.41C133.68,41.41,128.43,44.64,122.56,44.64Z"/><path d="M194.77,11.65,193.09,14a7.08,7.08,0,0,0-3.65-1c-6.47,0-10.1,5.33-10.1,13.4v3.82c0,7.58,1,12.07,2.47,13.13h-6.76v0h-2.46c1.51-1.09,2.46-5.78,2.46-13.72v-1a43.71,43.71,0,0,1-9.49,10.05c.33,2.31.94,3.79,2.06,4.63-2.91,0-4.6-.91-5.56-2.31a24.12,24.12,0,0,1-11.88,3.53c-6.66,0-11.11-3.76-11.11-8.39,0-9.8,12.87-14.42,21.79-17v-.07c0-5.31-2.43-7.35-5.86-7.35h0a10.91,10.91,0,0,0-8.15,4.08l-3.05-3.7h0c5,0,6.85-1.22,11.21-1.22,8,0,10.18,3.81,10.18,8.2V30.52c0,2.91.08,5.27.27,7.16a45.28,45.28,0,0,0,9.62-10.5V25.94c0-7.94-1-12.63-2.47-13.71H175v0h4.29v7.93c1.62-5.4,5.45-9.15,11.1-9.15A13.4,13.4,0,0,1,194.77,11.65ZM161.6,40.3a10.65,10.65,0,0,1-.74-4.38V20.16C153.41,23,144.4,28,144.4,36.25c0,4.38,2.91,7.39,6.77,7.39A21.41,21.41,0,0,0,161.6,40.3Z"/><path d="M223,35.6c-2.69,4.35-8,9-14.22,9-8.86,0-16.05-7.53-16.05-16.82S199.94,11,208.8,11h0c7.28,0,11.85,5.08,12.13,10.43H199.06a22.88,22.88,0,0,0-.88,6.38c0,8.82,4.75,16,10.62,16,5.57,0,10.42-3.61,13.54-8.53Zm-23.69-15h16.76c-.05-4.6-2.6-8.73-7.29-8.73C204.66,11.86,201.08,15.41,199.33,20.59Z"/></g></g></svg>